<svg width="16" height="16" viewBox="0 0 16 16" fill="none" xmlns="http://www.w3.org/2000/svg">
<path d="M1.50024 14H12.5002L12.9802 13.63L15.6102 6.63L15.1302 6H14.0002V3.5L13.5002 3H7.71021L6.85022 2.15002L6.50024 2H1.50024L1.00024 2.5V13.5L1.50024 14ZM2.00024 3H6.29028L7.15027 3.84998L7.50024 4H13.0002V6H8.50024L8.15027 6.15002L7.29028 7H3.50024L3.03027 7.33997L2.03027 10.42L2.00024 3ZM12.1302 13H2.19019L3.86023 8H7.50024L7.85022 7.84998L8.71021 7H14.5002L12.1302 13Z" fill="#424242"/>
</svg>
