<?xml version="1.0" encoding="UTF-8" standalone="no"?>
<!-- Created with Inkscape (http://www.inkscape.org/) -->

<svg
   xmlns:osb="http://www.openswatchbook.org/uri/2009/osb"
   xmlns:dc="http://purl.org/dc/elements/1.1/"
   xmlns:cc="http://creativecommons.org/ns#"
   xmlns:rdf="http://www.w3.org/1999/02/22-rdf-syntax-ns#"
   xmlns:svg="http://www.w3.org/2000/svg"
   xmlns="http://www.w3.org/2000/svg"
   xmlns:sodipodi="http://sodipodi.sourceforge.net/DTD/sodipodi-0.dtd"
   xmlns:inkscape="http://www.inkscape.org/namespaces/inkscape"
   width="680"
   height="680"
   viewBox="0 0 179.91666 179.91667"
   version="1.1"
   id="svg8"
   inkscape:version="0.92.5 (2060ec1f9f, 2020-04-08)"
   sodipodi:docname="treesheets.svg"
   inkscape:export-filename="/home/matthew/Desktop/treesheets.png"
   inkscape:export-xdpi="96"
   inkscape:export-ydpi="96">
  <defs
     id="defs2">
    <linearGradient
       id="linearGradient901"
       osb:paint="solid">
      <stop
         style="stop-color:#000000;stop-opacity:1;"
         offset="0"
         id="stop899" />
    </linearGradient>
  </defs>
  <sodipodi:namedview
     id="base"
     pagecolor="#ffffff"
     bordercolor="#666666"
     borderopacity="1.0"
     inkscape:pageopacity="0.0"
     inkscape:pageshadow="2"
     inkscape:zoom="0.733172"
     inkscape:cx="322.37837"
     inkscape:cy="271.15816"
     inkscape:document-units="px"
     inkscape:current-layer="layer1"
     showgrid="false"
     inkscape:window-width="1920"
     inkscape:window-height="1014"
     inkscape:window-x="0"
     inkscape:window-y="0"
     inkscape:window-maximized="1"
     units="px" />
  <metadata
     id="metadata5">
    <rdf:RDF>
      <cc:Work
         rdf:about="">
        <dc:format>image/svg+xml</dc:format>
        <dc:type
           rdf:resource="http://purl.org/dc/dcmitype/StillImage" />
        <dc:title></dc:title>
      </cc:Work>
    </rdf:RDF>
  </metadata>
  <g
     inkscape:label="Layer 1"
     inkscape:groupmode="layer"
     id="layer1"
     transform="translate(-19.704056,-40.32725)">
    <g
       id="g23"
       transform="matrix(1.0592611,0,0,1.0770814,-1.1013222,-16.908959)">
      <rect
         y="59.368668"
         x="25.867487"
         height="154.58766"
         width="157.39896"
         id="rect75-3"
         style="fill:#ffffff;fill-opacity:1;stroke:#767676;stroke-width:12.45077991;stroke-miterlimit:4;stroke-dasharray:none;stroke-opacity:1" />
      <path
         inkscape:connector-curvature="0"
         id="path15"
         d="M 37.041672,132.95834 H 170.08929"
         style="fill:none;stroke:#6d6d6d;stroke-width:3.06500006;stroke-linecap:butt;stroke-linejoin:miter;stroke-miterlimit:4;stroke-dasharray:12.26, 12.26;stroke-dashoffset:0;stroke-opacity:1" />
      <path
         inkscape:connector-curvature="0"
         id="path15-8"
         d="M 36.588093,163.95238 H 169.63572"
         style="fill:none;stroke:#6d6d6d;stroke-width:3.06500006;stroke-linecap:butt;stroke-linejoin:miter;stroke-miterlimit:4;stroke-dasharray:12.26000013, 12.26000013;stroke-dashoffset:0;stroke-opacity:1" />
      <path
         inkscape:connector-curvature="0"
         id="path15-5"
         d="M 129.26786,203.41308 V 70.36547"
         style="fill:none;stroke:#6d6d6d;stroke-width:3.06500006;stroke-linecap:butt;stroke-linejoin:miter;stroke-miterlimit:4;stroke-dasharray:12.26000013, 12.26000013;stroke-dashoffset:0;stroke-opacity:1" />
      <g
         id="flowRoot913"
         style="font-style:normal;font-variant:normal;font-weight:bold;font-stretch:normal;font-size:74.66666412px;line-height:1.25;font-family:'Libris ADF Std';-inkscape-font-specification:'Libris ADF Std, Bold';font-variant-ligatures:normal;font-variant-caps:normal;font-variant-numeric:normal;font-feature-settings:normal;text-align:start;letter-spacing:0px;word-spacing:0px;writing-mode:lr-tb;text-anchor:start;fill:#000000;fill-opacity:1;stroke:none;stroke-opacity:1"
         transform="matrix(0.76673,0,0,0.76673,893.21672,-3.6280039)"
         aria-label="TS">
        <path
           id="path825"
           style="font-style:normal;font-variant:normal;font-weight:bold;font-stretch:normal;font-size:74.66666412px;font-family:'Libris ADF Std';-inkscape-font-specification:'Libris ADF Std, Bold';font-variant-ligatures:normal;font-variant-caps:normal;font-variant-numeric:normal;font-feature-settings:normal;text-align:start;writing-mode:lr-tb;text-anchor:start;fill:#000000;fill-opacity:1;stroke:none;stroke-opacity:1"
           d="m -1078.6855,155.60379 c 0,-15.38133 -0.075,-31.35999 -0.075,-46.74133 h 15.1574 l 2.3893,-6.79466 h -41.664 l -2.9867,6.79466 h 17.7707 c 0,8.43734 0.1493,15.456 0.1493,21.056 0,21.87733 -0.7466,25.16267 -2.3146,27.104 z"
           inkscape:connector-curvature="0" />
        <path
           id="path827"
           style="font-style:normal;font-variant:normal;font-weight:bold;font-stretch:normal;font-size:74.66666412px;font-family:'Libris ADF Std';-inkscape-font-specification:'Libris ADF Std, Bold';font-variant-ligatures:normal;font-variant-caps:normal;font-variant-numeric:normal;font-feature-settings:normal;text-align:start;writing-mode:lr-tb;text-anchor:start;fill:#000000;fill-opacity:1;stroke:none;stroke-opacity:1"
           d="m -1064.2003,150.07846 c 2.688,4.40533 11.2747,6.12267 15.9787,7.69067 12.2453,0 18.6667,-10.37867 18.6667,-18.592 0,-3.808 -1.792,-7.24267 -4.928,-9.856 -2.0907,-1.64267 -8.6614,-2.83733 -12.32,-4.85333 -3.8827,-2.09067 -6.1227,-5.67467 -6.1227,-9.25867 0,-2.61333 0.5973,-4.85333 1.6427,-6.34667 0.896,-0.14933 1.7173,-0.224 2.24,-0.224 3.2853,0 8.96,1.86667 11.7226,5.74934 l 7.9894,-5.00267 c -2.7627,-4.40533 -7.5414,-6.72 -11.9467,-6.72 -3.5093,0 -10.0053,1.49333 -12.3947,3.36 -4.928,4.032 -10.4533,8.88533 -10.4533,14.26133 0,3.50934 1.1947,6.64534 3.808,9.10934 h -0.075 c 2.3894,2.464 8.8854,3.65866 11.3494,4.85333 l 1.8666,0.896 c 4.6294,2.24 8.736,4.256 8.736,8.96 0,5.00266 -1.344,7.24266 -2.6133,7.24266 -3.8827,0 -10.1547,-2.016 -12.8427,-6.64533 z"
           inkscape:connector-curvature="0" />
      </g>
    </g>
  </g>
</svg>
