<?xml version="1.0" encoding="UTF-8" standalone="no"?>
<svg
   height="24"
   viewBox="0 -960 960 960"
   width="24"
   version="1.1"
   id="svg1"
   sodipodi:docname="replaceall.svg"
   xml:space="preserve"
   inkscape:version="1.3.2 (091e20ef0f, 2023-11-25, custom)"
   xmlns:inkscape="http://www.inkscape.org/namespaces/inkscape"
   xmlns:sodipodi="http://sodipodi.sourceforge.net/DTD/sodipodi-0.dtd"
   xmlns="http://www.w3.org/2000/svg"
   xmlns:svg="http://www.w3.org/2000/svg"><defs
     id="defs1" /><sodipodi:namedview
     id="namedview1"
     pagecolor="#ffffff"
     bordercolor="#000000"
     borderopacity="0.25"
     inkscape:showpageshadow="2"
     inkscape:pageopacity="0.0"
     inkscape:pagecheckerboard="0"
     inkscape:deskcolor="#d1d1d1"
     inkscape:zoom="33.322407"
     inkscape:cx="11.343718"
     inkscape:cy="12.439077"
     inkscape:window-width="1774"
     inkscape:window-height="1262"
     inkscape:window-x="2811"
     inkscape:window-y="0"
     inkscape:window-maximized="0"
     inkscape:current-layer="svg1" /><path
     d="m 278.54951,-438.26664 q 9.29789,-68.4059 60.76835,-113.89913 51.47047,-45.49326 122.53291,-45.49326 39.18397,0 73.38692,14.94304 34.20295,14.94304 59.44009,40.84429 v -55.78733 h 53.1308 v 159.39239 H 488.41616 v -53.13078 h 79.69621 q -19.2599,-23.90886 -46.15738,-38.51983 -26.89748,-14.61097 -60.10422,-14.61097 -47.81772,0 -84.34515,30.21813 -36.52742,30.21815 -45.82531,76.04345 z m 411.7637,292.2194 -116.88776,-116.88774 q -23.90886,17.93163 -52.13458,27.5616 -28.22575,9.62996 -59.4401,9.62996 -39.18395,0 -73.3869,-14.94305 -34.20298,-14.94303 -59.4401,-40.84431 v 55.78736 h -53.13079 v -159.39241 h 159.39239 v 53.13079 h -79.69618 q 19.2599,23.90888 46.15737,38.51983 26.89746,14.61099 60.10421,14.61099 47.81772,0 84.34515,-30.21815 36.52743,-30.21815 45.8253,-76.04346 h 53.13081 q -3.32067,23.90887 -11.95444,44.82911 -8.63374,20.92026 -22.58057,40.18016 l 116.88774,116.88777 z"
     id="path1"
     style="stroke-width:0.664135" /><path
     d="m 220.71964,-38.520325 q -36.92143,0 -63.21397,-26.292534 -26.29254,-26.292539 -26.29254,-63.213971 v -716.05198 q 0,-36.92144 26.29254,-63.21398 26.29254,-26.29253 63.21397,-26.29253 h 358.02599 l 268.5195,268.5195 v 537.03899 q 0,36.921432 -26.29254,63.213971 -26.29253,26.292534 -63.21396,26.292534 z M 533.99238,-620.31257 V -844.07881 H 220.71964 v 716.05198 H 757.75863 V -620.31257 Z M 220.71964,-844.07881 v 223.76624 -223.76624 716.05198 z"
     id="path1-2"
     style="stroke-width:1.11883" /></svg>
